<?xml version="1.0" encoding="iso-8859-1"?>
<!-- Generator: Adobe Illustrator 19.0.0, SVG Export Plug-In . SVG Version: 6.00 Build 0)  -->
<svg version="1.1" id="Capa_1" xmlns="http://www.w3.org/2000/svg" xmlns:xlink="http://www.w3.org/1999/xlink" x="0px" y="0px"
	 viewBox="0 0 511.999 511.999" style="enable-background:new 0 0 511.999 511.999;" xml:space="preserve">
<circle style="fill:#E6EFF4;" cx="255.999" cy="255.999" r="255.999"/>
<path style="fill:#B6D1DD;" d="M367.68,144.32l-0.16,0.16c-28.441-24.252-67.899-39.281-111.52-39.281
	c-86.666,0-156.923,59.308-156.923,132.467c0,45.297,26.938,85.276,68.022,109.163c-4.99,12.783-12.844,28.641-22.948,40.564
	l-8.746,8.746l115.8,115.8c1.596,0.03,3.191,0.06,4.794,0.06c130.963,0,238.94-98.345,254.15-225.209L381.543,158.184
	c-3.582-4.025-7.432-7.872-11.524-11.524L367.68,144.32z"/>
<path style="fill:#41A0D7;" d="M256,105.2c-86.666,0-156.923,59.308-156.923,132.467c0,45.297,26.938,85.275,68.022,109.163
	c-6.35,16.27-17.324,37.546-31.694,49.309c28.412-7.78,52.387-19.266,69.509-33.19c16.015,4.653,33.2,7.185,51.086,7.185
	c86.666,0,156.923-59.308,156.923-132.467C412.924,164.507,342.666,105.2,256,105.2z"/>
<path style="fill:#FFFFFF;" d="M310.543,234.828c51.227,0,92.755,35.056,92.755,78.3c0,26.775-15.923,50.406-40.207,64.526
	c3.754,9.616,10.239,22.193,18.734,29.147c-16.794-4.598-30.966-11.388-41.086-19.618c-9.466,2.75-19.624,4.247-30.197,4.247
	c-51.227,0-92.756-35.056-92.756-78.3C217.787,269.885,259.315,234.828,310.543,234.828z"/>
<g>
	<circle style="fill:#00558C;" cx="314.457" cy="311.751" r="14.613"/>
	<circle style="fill:#00558C;" cx="267.687" cy="311.751" r="14.613"/>
	<circle style="fill:#00558C;" cx="361.216" cy="311.751" r="14.613"/>
</g>
<g>
</g>
<g>
</g>
<g>
</g>
<g>
</g>
<g>
</g>
<g>
</g>
<g>
</g>
<g>
</g>
<g>
</g>
<g>
</g>
<g>
</g>
<g>
</g>
<g>
</g>
<g>
</g>
<g>
</g>
</svg>
